<svg width="177" height="36" viewBox="0 0 177 36" fill="none" xmlns="http://www.w3.org/2000/svg">
<path d="M22.8913 11.8546C23.347 9.41308 23.1517 7.39477 22.3053 5.79966C21.4589 4.20454 20.2544 3.00007 18.6919 2.18624C17.9106 1.82815 17.0479 1.53517 16.1039 1.3073C15.1924 1.07942 14.2483 0.949211 13.2717 0.916658C12.3277 0.85155 11.3836 0.884103 10.4396 1.01432C9.49555 1.11198 8.63289 1.32357 7.85161 1.64911C6.28905 2.30017 4.95436 3.29305 3.84755 4.62774C2.77329 5.96242 2.04084 7.4436 1.6502 9.07127C1.25956 10.6989 1.27584 12.3754 1.69903 14.1008C2.15478 15.8261 3.13138 17.4049 4.62883 18.8373C5.08458 19.2279 5.58915 19.5697 6.14256 19.8627C6.69597 20.1557 7.2982 20.3673 7.94927 20.4975C8.63289 20.6277 9.36534 20.7742 10.1466 20.937C10.9279 21.0672 11.6441 21.2788 12.2951 21.5717C12.9788 21.8647 13.5647 22.2554 14.053 22.7437C14.5413 23.1994 14.8343 23.8179 14.932 24.5992C15.1273 25.7386 14.8994 26.585 14.2483 27.1384C13.6298 27.6918 12.8811 27.9848 12.0022 28.0173C11.1558 28.0173 10.3419 27.7569 9.56066 27.236C8.81193 26.7152 8.40502 25.9339 8.33991 24.8922C7.2331 24.9247 5.99607 24.9085 4.62883 24.8434C3.26159 24.7457 2.00829 24.7783 0.868919 24.941V25.0875V25.234C0.771259 26.7966 1.04796 28.1964 1.69903 29.4334C2.3501 30.6379 3.22904 31.6633 4.33585 32.5097C5.44266 33.3561 6.69597 34.0234 8.09576 34.5117C9.52811 34.9674 10.9605 35.2116 12.3928 35.2442C13.402 35.2767 14.3786 35.1953 15.3226 35C16.2992 34.7721 17.1944 34.4303 18.0082 33.9746C18.8546 33.5188 19.6034 32.9329 20.2544 32.2167C20.9055 31.5005 21.4264 30.6379 21.817 29.6287C22.2076 28.7823 22.4843 27.9034 22.6471 26.9919C22.8424 26.0478 22.9075 25.1201 22.8424 24.2086C22.8099 23.2971 22.6471 22.4181 22.3541 21.5717C22.0611 20.6928 21.6217 19.879 21.0357 19.1302C20.0917 17.7305 18.8709 16.5748 17.3735 15.6633C15.9086 14.7518 14.3134 14.1984 12.5881 14.0031C11.9045 13.9054 11.2697 13.7264 10.6838 13.466C10.0978 13.2055 9.6746 12.6847 9.41417 11.9034C9.38162 11.6755 9.34906 11.4639 9.31651 11.2686C9.31651 11.0407 9.34906 10.8129 9.41417 10.585C9.54438 9.67351 9.96758 9.05499 10.6838 8.72946C11.4325 8.40392 12.1975 8.32254 12.9788 8.48531C13.76 8.64807 14.4274 9.02244 14.9808 9.6084C15.5342 10.1944 15.7132 10.9268 15.5179 11.8057C16.6573 12.1313 17.878 12.2778 19.1802 12.2452C20.4823 12.1801 21.7031 12.0499 22.8424 11.8546H22.8913ZM41.23 17.8607C41.0998 17.3073 40.9207 16.5585 40.6928 15.6145C40.465 14.6704 40.2208 13.6287 39.9604 12.4894C39.7 11.35 39.4233 10.1618 39.1303 8.92478C38.8699 7.68775 38.6094 6.53211 38.349 5.45785C38.1211 4.35103 37.8933 3.37443 37.6654 2.52805C37.4701 1.64911 37.3236 0.99804 37.2259 0.574847C36.1516 0.672507 35.2727 0.737614 34.5891 0.770167C33.938 0.770167 33.4009 0.770167 32.9777 0.770167C32.5545 0.770167 32.2127 0.770167 31.9523 0.770167C31.6918 0.770167 31.4477 0.786443 31.2198 0.818996C30.4385 3.42326 29.7224 6.04381 29.0713 8.68063C28.4202 11.3174 27.818 13.8566 27.2646 16.2981C26.7112 18.7396 26.2229 21.0509 25.7997 23.232C25.409 25.3805 25.0672 27.2849 24.7743 28.9451C24.4813 30.6053 24.2534 31.9563 24.0906 32.998C23.9279 34.0397 23.8139 34.6745 23.7488 34.9023C23.7814 34.9349 23.8139 34.9512 23.8465 34.9512C26.0601 34.9186 27.6878 34.9349 28.7295 35C29.7712 35.0651 30.4223 35.0651 30.6827 35C30.7152 35 30.7315 35 30.7315 35C30.7641 34.9674 30.7966 34.9512 30.8292 34.9512C31.1222 34.3978 31.35 33.763 31.5128 33.0468C31.6756 32.3306 31.8221 31.5982 31.9523 30.8494C32.115 30.0682 32.2615 29.3357 32.3917 28.6521C32.5545 27.9359 32.7498 27.3174 32.9777 26.7966C33.3358 26.7966 33.6125 26.7966 33.8078 26.7966C34.0357 26.764 34.231 26.7477 34.3938 26.7477C34.5891 26.7477 34.8007 26.7477 35.0286 26.7477C35.2564 26.7477 35.582 26.7803 36.0052 26.8454C36.233 27.3337 36.4446 27.9196 36.6399 28.6033C36.8353 29.2869 37.0143 30.0031 37.1771 30.7518C37.3724 31.5005 37.5514 32.233 37.7142 32.9491C37.9095 33.6653 38.1048 34.2838 38.3002 34.8047H38.349C39.3907 35.0326 40.4975 35.1628 41.6694 35.1953C42.8414 35.2604 43.9156 35.1953 44.8922 35V34.9512L41.23 17.8607ZM36.2493 21.0346C35.6308 21.0346 35.0123 21.0509 34.3938 21.0834C33.7753 21.0834 33.1893 21.0672 32.6359 21.0346C32.8638 19.3744 33.0591 17.8281 33.2218 16.3958C33.4172 14.9634 33.5799 13.7752 33.7101 12.8312C33.8729 11.8871 34.0357 11.2686 34.1984 10.9756C34.3938 10.6501 34.5728 10.764 34.7356 11.3174C34.9309 11.8709 35.1425 12.9288 35.3704 14.4914C35.6308 16.054 35.9238 18.235 36.2493 21.0346ZM65.2154 1.60028C64.662 1.50262 64.0761 1.45379 63.4575 1.45379C62.8716 1.42123 62.2693 1.40496 61.6508 1.40496C61.0649 1.40496 60.4789 1.40496 59.893 1.40496C59.307 1.3724 58.7373 1.29102 58.1839 1.16081C58.1188 1.16081 58.0862 1.19336 58.0862 1.25847C57.7282 2.62571 57.4189 4.09061 57.1585 5.65317C56.898 7.21573 56.6213 8.92478 56.3284 10.7803C56.0354 12.6359 55.6936 14.6704 55.3029 16.8841C54.9123 19.0651 54.4077 21.4741 53.7892 24.1109C53.1381 21.4741 52.6498 18.9187 52.3243 16.4446C52.0313 13.9705 51.8197 11.7081 51.6895 9.65723C51.5593 7.60637 51.4779 5.84849 51.4454 4.38359C51.4128 2.91869 51.3314 1.8607 51.2012 1.20964C50.9408 1.14453 50.4688 1.0957 49.7851 1.06315C49.1015 1.03059 48.3853 1.03059 47.6366 1.06315C46.8879 1.06315 46.188 1.11198 45.5369 1.20964C44.8859 1.3073 44.4627 1.47006 44.2673 1.69794V1.74677C44.7231 7.37849 45.423 12.9777 46.367 18.5443C47.3111 24.0784 48.5156 29.4822 49.9805 34.7558C50.5013 34.9186 51.1198 35.0163 51.836 35.0488C52.5847 35.1139 53.3172 35.1465 54.0333 35.1465C54.717 35.1465 55.3355 35.1139 55.8889 35.0488C56.4423 34.9837 56.8492 34.9512 57.1096 34.9512C57.8909 32.119 58.6396 29.3357 59.3558 26.6012C60.072 23.8342 60.7719 21.0834 61.4555 18.349C62.1391 15.6145 62.7902 12.8637 63.4087 10.0967C64.0598 7.32966 64.662 4.49752 65.2154 1.60028ZM87.6005 28.3591C85.3869 28.4242 83.2384 28.4079 81.155 28.3103C79.0716 28.1801 76.9556 28.115 74.8071 28.115L74.7582 28.0661C74.6931 27.2849 74.628 26.3083 74.5629 25.1363C74.5304 23.9644 74.5955 22.9064 74.7582 21.9624C74.921 21.8322 75.2303 21.7508 75.686 21.7182C76.1418 21.6857 76.6463 21.6694 77.1997 21.6694C77.7857 21.6694 78.3879 21.6694 79.0065 21.6694C79.625 21.6369 80.1784 21.5555 80.6667 21.4253C80.6341 20.2208 80.6504 19.0651 80.7155 17.9583C80.7806 16.8515 80.7318 15.7447 80.569 14.6379V14.5891C79.5599 14.5565 78.5507 14.5402 77.5416 14.5402C76.5324 14.5402 75.5395 14.5077 74.5629 14.4426L74.5141 14.3937C74.2862 13.5148 74.2211 12.587 74.3188 11.6104C74.449 10.6013 74.4978 9.62467 74.4653 8.68063L74.5141 8.6318H74.6606C75.7348 8.53414 76.8091 8.48531 77.8834 8.48531C78.9576 8.48531 80.0319 8.50158 81.1061 8.53414C82.1804 8.53414 83.2384 8.51786 84.2801 8.48531C85.3544 8.4202 86.4123 8.27371 87.454 8.04584V7.99701C87.454 6.85764 87.4866 5.702 87.5517 4.53008C87.6494 3.35816 87.6168 2.20251 87.454 1.06315C87.454 1.03059 87.1285 0.99804 86.4775 0.965487C85.8264 0.932935 84.9637 0.916658 83.8895 0.916658C82.8152 0.916658 81.5782 0.932935 80.1784 0.965487C78.7786 0.99804 77.33 1.03059 75.8325 1.06315C74.3351 1.0957 72.8376 1.14453 71.3401 1.20964C69.8752 1.24219 68.508 1.29102 67.2384 1.35613C67.0757 4.15571 66.978 6.93902 66.9454 9.70606C66.9129 12.4731 66.9129 15.2401 66.9454 18.0072C66.978 20.7742 67.0268 23.5575 67.0919 26.3571C67.157 29.1241 67.1896 31.9237 67.1896 34.7558C70.3473 35.0163 73.6352 35.0977 77.0533 35C80.5039 34.8698 83.8895 34.821 87.2099 34.8535C87.4703 33.8769 87.6168 32.8352 87.6494 31.7284C87.6819 30.589 87.6656 29.4985 87.6005 28.4568V28.3591ZM112.135 11.0245C112.037 9.16893 111.614 7.59009 110.865 6.28796C110.117 4.98582 109.156 3.91156 107.984 3.06518C106.845 2.18624 105.527 1.53517 104.029 1.11198C102.532 0.656232 100.985 0.363252 99.3903 0.233038C97.8278 0.102824 96.2489 0.119101 94.6538 0.281867C93.0912 0.444634 91.6426 0.70506 90.3079 1.06315C90.4056 3.76507 90.4544 6.59721 90.4544 9.55957C90.487 12.5219 90.5033 15.468 90.5033 18.3978C90.5033 21.3276 90.5033 24.1923 90.5033 26.9919C90.5033 29.7589 90.5521 32.3306 90.6497 34.707C91.2031 34.7721 91.8542 34.821 92.6029 34.8535C93.3517 34.8861 94.1004 34.9023 94.8491 34.9023C95.6304 34.8698 96.3629 34.8372 97.0465 34.8047C97.7626 34.7396 98.3486 34.6419 98.8044 34.5117C98.8369 34.5117 98.8532 34.5117 98.8532 34.5117C98.8857 34.4791 98.9183 34.4629 98.9508 34.4629V34.414C98.8857 32.0376 98.8369 30.1496 98.8044 28.7498C98.8044 27.35 98.8044 26.2432 98.8044 25.4293C98.8044 24.5829 98.8044 23.9481 98.8044 23.5249C98.8044 23.0692 98.7881 22.6135 98.7555 22.1577C100.318 22.4181 101.848 22.353 103.346 21.9624C104.843 21.5392 106.21 20.8719 107.447 19.9604C108.684 19.0489 109.71 17.9421 110.524 16.6399C111.37 15.3378 111.891 13.9054 112.086 12.3429C112.119 12.1476 112.135 11.9522 112.135 11.7569C112.135 11.529 112.135 11.3012 112.135 11.0733V11.0245ZM103.59 8.97361C104.013 9.23403 104.338 9.55957 104.566 9.95021C104.827 10.3408 104.989 10.764 105.055 11.2198C105.152 11.6755 105.136 12.1313 105.006 12.587C104.908 13.0428 104.729 13.4497 104.469 13.8078C104.078 14.1984 103.606 14.4914 103.053 14.6867C102.532 14.8495 101.978 14.9634 101.392 15.0285C100.839 15.0936 100.269 15.1425 99.6833 15.175C99.0973 15.175 98.5439 15.1913 98.0231 15.2238H97.8766C97.7138 14.7355 97.5999 14.1984 97.5348 13.6125C97.5022 12.9939 97.4697 12.3592 97.4371 11.7081C97.4371 11.057 97.4371 10.406 97.4371 9.75489C97.4697 9.10382 97.4697 8.48531 97.4371 7.89935C97.4697 7.86679 97.5185 7.85052 97.5836 7.85052C98.6253 7.59009 99.6833 7.55754 100.758 7.75286C101.832 7.91562 102.776 8.32254 103.59 8.97361ZM128.161 17.8607C128.031 17.3073 127.851 16.5585 127.624 15.6145C127.396 14.6704 127.152 13.6287 126.891 12.4894C126.631 11.35 126.354 10.1618 126.061 8.92478C125.801 7.68775 125.54 6.53211 125.28 5.45785C125.052 4.35103 124.824 3.37443 124.596 2.52805C124.401 1.64911 124.254 0.99804 124.157 0.574847C123.082 0.672507 122.203 0.737614 121.52 0.770167C120.869 0.770167 120.332 0.770167 119.908 0.770167C119.485 0.770167 119.143 0.770167 118.883 0.770167C118.623 0.770167 118.378 0.786443 118.151 0.818996C117.369 3.42326 116.653 6.04381 116.002 8.68063C115.351 11.3174 114.749 13.8566 114.195 16.2981C113.642 18.7396 113.154 21.0509 112.73 23.232C112.34 25.3805 111.998 27.2849 111.705 28.9451C111.412 30.6053 111.184 31.9563 111.021 32.998C110.859 34.0397 110.745 34.6745 110.68 34.9023C110.712 34.9349 110.745 34.9512 110.777 34.9512C112.991 34.9186 114.619 34.9349 115.66 35C116.702 35.0651 117.353 35.0651 117.613 35C117.646 35 117.662 35 117.662 35C117.695 34.9674 117.727 34.9512 117.76 34.9512C118.053 34.3978 118.281 33.763 118.444 33.0468C118.606 32.3306 118.753 31.5982 118.883 30.8494C119.046 30.0682 119.192 29.3357 119.322 28.6521C119.485 27.9359 119.681 27.3174 119.908 26.7966C120.267 26.7966 120.543 26.7966 120.739 26.7966C120.966 26.764 121.162 26.7477 121.325 26.7477C121.52 26.7477 121.731 26.7477 121.959 26.7477C122.187 26.7477 122.513 26.7803 122.936 26.8454C123.164 27.3337 123.375 27.9196 123.571 28.6033C123.766 29.2869 123.945 30.0031 124.108 30.7518C124.303 31.5005 124.482 32.233 124.645 32.9491C124.84 33.6653 125.036 34.2838 125.231 34.8047H125.28C126.321 35.0326 127.428 35.1628 128.6 35.1953C129.772 35.2604 130.846 35.1953 131.823 35V34.9512L128.161 17.8607ZM123.18 21.0346C122.562 21.0346 121.943 21.0509 121.325 21.0834C120.706 21.0834 120.12 21.0672 119.567 21.0346C119.795 19.3744 119.99 17.8281 120.153 16.3958C120.348 14.9634 120.511 13.7752 120.641 12.8312C120.804 11.8871 120.966 11.2686 121.129 10.9756C121.325 10.6501 121.504 10.764 121.666 11.3174C121.862 11.8709 122.073 12.9288 122.301 14.4914C122.562 16.054 122.855 18.235 123.18 21.0346ZM152.432 0.965487C151.358 0.867827 150.267 0.818996 149.161 0.818996C148.575 0.818996 147.989 0.835273 147.403 0.867826C146.817 0.900381 146.247 0.981765 145.694 1.11198V1.16081C145.564 2.59315 145.466 4.22082 145.401 6.04381C145.368 7.83424 145.319 9.6735 145.254 11.5616C145.222 13.4497 145.173 15.3052 145.108 17.1282C145.043 18.9187 144.945 20.5138 144.815 21.9136C144.619 21.4253 144.392 20.6765 144.131 19.6674C143.903 18.6582 143.659 17.6328 143.399 16.5911C143.171 15.5494 142.927 14.6216 142.666 13.8078C142.438 12.9614 142.259 12.4894 142.129 12.3917C142.097 12.4243 142.08 12.4568 142.08 12.4894C142.08 12.5219 142.064 12.5708 142.032 12.6359C141.673 14.1008 141.315 15.5494 140.957 16.9817C140.632 18.3815 140.257 19.8139 139.834 21.2788C139.476 19.879 139.248 18.3001 139.151 16.5423C139.053 14.7844 139.004 12.9939 139.004 11.171C139.004 9.34797 139.004 7.54126 139.004 5.75083C139.004 3.96039 138.939 2.349 138.809 0.916658C138.223 0.884103 137.604 0.851549 136.953 0.818996C136.302 0.786443 135.651 0.770167 135 0.770167C134.447 0.770167 133.893 0.80272 133.34 0.867826C132.819 0.900381 132.314 0.949211 131.826 1.01432V1.06315C131.924 6.69487 132.347 12.3266 133.096 17.9583C133.844 23.5901 134.609 29.1892 135.391 34.7558H135.439C136.156 34.8535 136.774 34.9023 137.295 34.9023C137.751 34.9023 138.158 34.8861 138.516 34.8535C138.874 34.7884 139.264 34.7233 139.688 34.6582C139.948 34.235 140.176 33.6328 140.371 32.8515C140.567 32.0702 140.762 31.2726 140.957 30.4588C141.153 29.6124 141.348 28.8311 141.543 28.115C141.771 27.3662 142.032 26.8454 142.324 26.5524H142.373C142.666 27.0082 142.927 27.6267 143.155 28.4079C143.382 29.1892 143.61 30.0031 143.838 30.8494C144.066 31.6633 144.278 32.4446 144.473 33.1933C144.701 33.9095 144.961 34.4629 145.254 34.8535H145.84H147.598C147.924 34.8535 148.217 34.8535 148.477 34.8535C148.77 34.8535 149.03 34.821 149.258 34.7558C149.714 29.0916 150.235 23.4598 150.821 17.8607C151.439 12.2615 151.993 6.64604 152.481 1.01432L152.432 0.965487ZM176.01 11.8546C176.465 9.41308 176.27 7.39477 175.424 5.79966C174.577 4.20454 173.373 3.00007 171.81 2.18624C171.029 1.82815 170.166 1.53517 169.222 1.3073C168.311 1.07942 167.367 0.949211 166.39 0.916658C165.446 0.85155 164.502 0.884103 163.558 1.01432C162.614 1.11198 161.751 1.32357 160.97 1.64911C159.407 2.30017 158.073 3.29305 156.966 4.62774C155.892 5.96242 155.159 7.4436 154.769 9.07127C154.378 10.6989 154.394 12.3754 154.817 14.1008C155.273 15.8261 156.25 17.4049 157.747 18.8373C158.203 19.2279 158.707 19.5697 159.261 19.8627C159.814 20.1557 160.417 20.3673 161.068 20.4975C161.751 20.6277 162.484 20.7742 163.265 20.937C164.046 21.0672 164.762 21.2788 165.413 21.5717C166.097 21.8647 166.683 22.2554 167.171 22.7437C167.66 23.1994 167.953 23.8179 168.05 24.5992C168.246 25.7386 168.018 26.585 167.367 27.1384C166.748 27.6918 165.999 27.9848 165.12 28.0173C164.274 28.0173 163.46 27.7569 162.679 27.236C161.93 26.7152 161.523 25.9339 161.458 24.8922C160.351 24.9247 159.114 24.9085 157.747 24.8434C156.38 24.7457 155.127 24.7783 153.987 24.941V25.0875V25.234C153.89 26.7966 154.166 28.1964 154.817 29.4334C155.468 30.6379 156.347 31.6633 157.454 32.5097C158.561 33.3561 159.814 34.0234 161.214 34.5117C162.646 34.9674 164.079 35.2116 165.511 35.2442C166.52 35.2767 167.497 35.1953 168.441 35C169.418 34.7721 170.313 34.4303 171.127 33.9746C171.973 33.5188 172.722 32.9329 173.373 32.2167C174.024 31.5005 174.545 30.6379 174.935 29.6287C175.326 28.7823 175.603 27.9034 175.765 26.9919C175.961 26.0478 176.026 25.1201 175.961 24.2086C175.928 23.2971 175.765 22.4181 175.472 21.5717C175.179 20.6928 174.74 19.879 174.154 19.1302C173.21 17.7305 171.989 16.5748 170.492 15.6633C169.027 14.7518 167.432 14.1984 165.706 14.0031C165.023 13.9054 164.388 13.7264 163.802 13.466C163.216 13.2055 162.793 12.6847 162.532 11.9034C162.5 11.6755 162.467 11.4639 162.435 11.2686C162.435 11.0407 162.467 10.8129 162.532 10.585C162.663 9.67351 163.086 9.05499 163.802 8.72946C164.551 8.40392 165.316 8.32254 166.097 8.48531C166.878 8.64807 167.546 9.02244 168.099 9.6084C168.652 10.1944 168.832 10.9268 168.636 11.8057C169.776 12.1313 170.996 12.2778 172.298 12.2452C173.601 12.1801 174.821 12.0499 175.961 11.8546H176.01Z" fill="#333333"/>
</svg>
