<?xml version="1.0" standalone="no"?>
<!DOCTYPE svg PUBLIC "-//W3C//DTD SVG 20010904//EN"
 "http://www.w3.org/TR/2001/REC-SVG-20010904/DTD/svg10.dtd">
<svg version="1.0" xmlns="http://www.w3.org/2000/svg"
 width="700.000000pt" height="700.000000pt" viewBox="0 0 700.000000 700.000000"
 preserveAspectRatio="xMidYMid meet">
<metadata>
Created by potrace 1.11, written by Peter Selinger 2001-2013
</metadata>
<g transform="translate(0.000000,700.000000) scale(0.100000,-0.100000)"
fill="#000000" stroke="none">
<path d="M0 3500 l0 -3500 3500 0 3500 0 0 3500 0 3500 -3500 0 -3500 0 0
-3500z m2836 1949 c84 -15 156 -52 224 -116 110 -101 160 -232 160 -415 0
-173 -37 -301 -124 -422 -81 -114 -167 -161 -280 -154 -97 7 -162 41 -256 137
-135 137 -189 283 -177 476 17 256 138 443 316 491 59 16 65 16 137 3z m1417
-19 c69 -26 154 -94 199 -161 58 -83 81 -157 86 -276 5 -127 -15 -228 -68
-333 -163 -324 -410 -412 -604 -216 -118 120 -164 234 -165 409 -1 121 19 217
68 322 109 233 290 328 484 255z m1284 -766 c28 -14 65 -41 82 -60 92 -104
133 -282 100 -433 -14 -68 -90 -180 -175 -262 -238 -227 -500 -273 -632 -113
-40 48 -52 101 -52 227 0 202 66 364 205 502 158 158 327 208 472 139z m-3962
-34 c183 -30 324 -180 395 -420 27 -92 39 -315 21 -400 -33 -156 -198 -244
-366 -195 -229 66 -400 254 -465 509 -25 98 -28 237 -5 256 8 7 31 38 50 70
61 101 140 160 239 180 57 11 64 11 131 0z m2089 -661 c557 -114 1242 -683
1353 -1124 26 -106 24 -382 -5 -486 -55 -203 -212 -413 -379 -512 -247 -144
-554 -152 -759 -19 -75 49 -115 93 -188 212 -129 207 -186 245 -269 180 -15
-12 -74 -93 -132 -180 -64 -97 -123 -174 -152 -199 -65 -55 -151 -97 -253
-122 -72 -18 -102 -21 -200 -16 -131 7 -203 24 -310 73 -181 84 -340 252 -440
468 -58 123 -71 183 -77 347 -6 173 11 262 78 397 170 346 695 770 1152 931
236 83 364 94 581 50z"/>
</g>
</svg>
