<svg width="24" height="25" viewBox="0 0 24 25" fill="none" xmlns="http://www.w3.org/2000/svg">
<path d="M13 13.4949H11V7.49487H13V13.4949ZM13 17.4949H11V15.4949H13V17.4949ZM12 2.49487C10.6868 2.49487 9.38642 2.75353 8.17317 3.25608C6.95991 3.75862 5.85752 4.49522 4.92893 5.42381C3.05357 7.29917 2 9.84271 2 12.4949C2 15.147 3.05357 17.6906 4.92893 19.5659C5.85752 20.4945 6.95991 21.2311 8.17317 21.7337C9.38642 22.2362 10.6868 22.4949 12 22.4949C14.6522 22.4949 17.1957 21.4413 19.0711 19.5659C20.9464 17.6906 22 15.147 22 12.4949C22 11.1817 21.7413 9.88129 21.2388 8.66804C20.7362 7.45478 19.9997 6.35239 19.0711 5.42381C18.1425 4.49522 17.0401 3.75862 15.8268 3.25608C14.6136 2.75353 13.3132 2.49487 12 2.49487Z" fill="#FA3E3E" fill-opacity="0.8"/>
</svg>
