<svg width="9" height="8" viewBox="0 0 9 8" fill="none" xmlns="http://www.w3.org/2000/svg">
<path fill-rule="evenodd" clip-rule="evenodd" d="M5.39424 4.00483L8.04876 1.35031C8.3742 1.02487 8.22855 0.651968 8.04589 0.4693C7.86322 0.286632 7.49031 0.140989 7.16488 0.466426L4.51035 3.12095L1.8587 0.4693C1.51679 0.12739 1.16036 0.283758 0.974821 0.4693C0.789279 0.654842 0.598936 0.977298 0.974821 1.35318L3.62647 4.00483L0.977695 6.65361C0.652258 6.97905 0.792153 7.3577 0.974821 7.54037C1.15749 7.72304 1.53614 7.86293 1.86158 7.53749L4.51035 4.88872L7.162 7.54037C7.48609 7.86445 7.86609 7.72016 8.04876 7.53749C8.23143 7.35483 8.36997 6.98057 8.04589 6.65648L5.39424 4.00483V4.00483Z" fill="#333333"/>
</svg>
