<svg width="25" height="21" viewBox="0 0 25 21" fill="none" xmlns="http://www.w3.org/2000/svg">
<path fill="#fff" fill-rule="evenodd" clip-rule="evenodd" d="M13.6194 3.58839C13.6212 2.18303 14.5156 0.433401 15.8948 0.348555C16.79 0.293501 17.6391 0.953798 18.0418 1.7574C18.2452 2.16333 18.4072 2.76054 18.2715 3.63927C18.0605 5.00542 17.0213 6.81106 15.6956 6.71009C14.483 6.61789 13.6176 4.97525 13.6194 3.58839Z" />
<path fill="#fff" fill-rule="evenodd" clip-rule="evenodd" d="M6.90761 4.02102C6.66513 2.63447 7.24754 0.741157 8.59989 0.398982C9.47749 0.176966 10.4344 0.669099 10.9731 1.38626C11.2453 1.74854 11.5098 2.30722 11.528 3.19941C11.5563 4.58646 10.84 6.56203 9.50842 6.71106C8.29032 6.84734 7.14688 5.3893 6.90761 4.02102Z" />
<path fill="#fff" fill-rule="evenodd" clip-rule="evenodd" d="M1.26469 9.07549C0.511819 7.95514 0.248419 5.99792 1.24473 5.06082C1.89129 4.45248 2.88732 4.44303 3.62282 4.8291C3.99434 5.02413 4.4373 5.39752 4.80639 6.18291C5.38023 7.40391 5.56424 9.49694 4.50866 10.2523C3.54302 10.9436 2.00789 10.1811 1.26469 9.07549Z" />
<path fill="#fff" fill-rule="evenodd" clip-rule="evenodd" d="M20.1125 5.9474C20.7958 4.77264 22.3379 3.79793 23.4478 4.48101C24.1681 4.92432 24.5058 5.94111 24.4279 6.83354C24.3885 7.28436 24.2243 7.87281 23.6927 8.53357C22.8663 9.56113 21.1849 10.5034 20.2065 9.69426C19.3115 8.95427 19.438 7.10685 20.1125 5.9474Z" />
<path fill="#fff" fill-rule="evenodd" clip-rule="evenodd" d="M4.15507 14.3754C4.3079 13.4147 4.87293 12.3479 6.17065 11.1081C8.72512 8.66761 11.4645 7.86943 12.4803 7.8741C13.6091 7.87932 15.5741 8.37872 17.6683 10.0047C19.3956 11.3459 20.4363 12.8522 20.6478 13.5812C20.9488 14.6183 20.9824 15.8633 20.5602 17.0387C20.1751 18.1108 19.5098 18.9937 18.6498 19.5165C17.3837 20.2861 15.6639 20.3558 14.5134 19.5165C13.6932 18.9182 13.3618 17.4722 12.7257 17.4619C12.0512 17.4511 11.6653 19.0551 10.7276 19.7067C9.53511 20.5355 7.95215 20.386 6.87173 19.8589C6.17577 19.5194 5.45303 18.902 4.85614 17.8377C4.32981 16.8991 3.95361 15.6419 4.15507 14.3754Z" />
</svg>
