<svg width="15" height="15" viewBox="0 0 15 15" fill="none" xmlns="http://www.w3.org/2000/svg">
<path d="M7.04912 14.175C6.88245 14.175 6.74079 14.125 6.62412 14.025C6.52412 13.9083 6.47412 13.7667 6.47412 13.6V8.4H1.34912C1.18245 8.4 1.04079 8.35 0.924121 8.25C0.824121 8.13333 0.774121 7.99167 0.774121 7.825V7.025C0.774121 6.85833 0.824121 6.725 0.924121 6.625C1.04079 6.50833 1.18245 6.45 1.34912 6.45H6.47412V1.4C6.47412 1.23333 6.52412 1.1 6.62412 1C6.74079 0.883333 6.88245 0.824999 7.04912 0.824999H7.92412C8.09079 0.824999 8.22412 0.883333 8.32412 1C8.44079 1.1 8.49912 1.23333 8.49912 1.4V6.45H13.6491C13.8158 6.45 13.9491 6.50833 14.0491 6.625C14.1658 6.725 14.2241 6.85833 14.2241 7.025V7.825C14.2241 7.99167 14.1658 8.13333 14.0491 8.25C13.9491 8.35 13.8158 8.4 13.6491 8.4H8.49912V13.6C8.49912 13.7667 8.44079 13.9083 8.32412 14.025C8.22412 14.125 8.09079 14.175 7.92412 14.175H7.04912Z" fill="black"/>
</svg>
